# xmcd CD database file
#
# Track frame offsets:
#	150
#	21757
#	39395
#	57762
#	78412
#	103315
#	121437
#	142567
#	163780
#	188615
#	206847
#	230835
#	249515
#	267012
#	285900
#	306605
#
# Disc length: 4326 seconds
#
# Revision: 20
# Processed by: cddbd v1.5.2PL0 Copyright (c) Steve Scherf et al.
# Submitted via: CDex 2.20
#
DISCID=dc10e410
DTITLE=Celine Dion - All The Way... A Decade Of Song
DYEAR=1999
DGENRE=Pop
TTITLE0=The Power Of Love
TTITLE1=If You Asked Me To
TTITLE2=Beauty And The Beast
TTITLE3=Because You Loved Me (Theme From ''Up Close and Personal'')
TTITLE4=It's All Coming Back To Me Now
TTITLE5=Love Can Move Mountains
TTITLE6=To Love You More
TTITLE7=My Heart Will Go On (Love Theme From ''Titanic'')
TTITLE8=I'm Your Angel (Duet With R. Kelly)
TTITLE9=That's The Way It Is
TTITLE10=If Walls Could Talk
TTITLE11=The First Time Ever I Saw Your Face
TTITLE12=All The Way
TTITLE13=Then You Look At Me
TTITLE14=I Want You To Need Me
TTITLE15=Live
EXTD=YEAR: 1999
EXTT0=
EXTT1=
EXTT2=
EXTT3=
EXTT4=
EXTT5=
EXTT6=
EXTT7=
EXTT8=
EXTT9=
EXTT10=
EXTT11=
EXTT12=
EXTT13=
EXTT14=
EXTT15=
PLAYORDER=
